PathFileType        4      (X/Y/Z)      C:\Users\pc\Desktop\IMUTRC\Sujet_05\Sujet_05_Tpose.trc         
DataRate	CameraRate	NumFrames	NumMarkers	Units	OrigDataRate	OrigDataStartFrame	OrigNumFrames
60.0	60.0	4	64	mm	60.0	1	116
Frame#	Time	pHipOrigin			pRightASI			pLeftASI			pRightCSI			pLeftCSI			pRightIschialTub			pLeftIschialTub			pSacrum			pL5SpinalProcess			pL3SpinalProcess			pT12SpinalProcess			pIJ			pT4SpinalProcess			pT8SpinalProcess			pPX			pC7SpinalProcess			pTopOfHead			pRightAuricularis			pLeftAuricularis			pBackOfHead			pRightAcromion			pLeftAcromion			pRightArmLatEpicondyle			pRightArmMedEpicondyle			pLeftArmLatEpicondyle			pLeftArmMedEpicondyle			pRightUlnarStyloid			pRightRadialStyloid			pRightOlecranon			pLeftUlnarStyloid			pLeftRadialStyloid			pLeftOlecranon			pRightTopOfHand			pRightPinky			pRightBallHand			pLeftTopOfHand			pLeftPinky			pLeftBallHand			pRightGreaterTrochanter			pRightKneeLatEpicondyle			pRightKneeMedEpicondyle			pRightPatella			pLeftGreaterTrochanter			pLeftKneeLatEpicondyle			pLeftKneeMedEpicondyle			pLeftPatella			pRightTibialTub			pRightLatMalleolus			pRightMedMalleolus			pLeftTibialTub			pLeftLatMalleolus			pLeftMedMalleolus			pRightHeelFoot			pRightFirstMetatarsal			pRightFifthMetatarsal			pRightPivotFoot			pRightHeelCenter			pRightToe			pLeftHeelFoot			pLeftFirstMetatarsal			pLeftFifthMetatarsal			pLeftPivotFoot			pLeftHeelCenter			pLeftToe			
		X1	Y1	Z1	X2	Y2	Z2	X3	Y3	Z3	X4	Y4	Z4	X5	Y5	Z5	X6	Y6	Z6	X7	Y7	Z7	X8	Y8	Z8	X9	Y9	Z9	X10	Y10	Z10	X11	Y11	Z11	X12	Y12	Z12	X13	Y13	Z13	X14	Y14	Z14	X15	Y15	Z15	X16	Y16	Z16	X17	Y17	Z17	X18	Y18	Z18	X19	Y19	Z19	X20	Y20	Z20	X21	Y21	Z21	X22	Y22	Z22	X23	Y23	Z23	X24	Y24	Z24	X25	Y25	Z25	X26	Y26	Z26	X27	Y27	Z27	X28	Y28	Z28	X29	Y29	Z29	X30	Y30	Z30	X31	Y31	Z31	X32	Y32	Z32	X33	Y33	Z33	X34	Y34	Z34	X35	Y35	Z35	X36	Y36	Z36	X37	Y37	Z37	X38	Y38	Z38	X39	Y39	Z39	X40	Y40	Z40	X41	Y41	Z41	X42	Y42	Z42	X43	Y43	Z43	X44	Y44	Z44	X45	Y45	Z45	X46	Y46	Z46	X47	Y47	Z47	X48	Y48	Z48	X49	Y49	Z49	X50	Y50	Z50	X51	Y51	Z51	X52	Y52	Z52	X53	Y53	Z53	X54	Y54	Z54	X55	Y55	Z55	X56	Y56	Z56	X57	Y57	Z57	X58	Y58	Z58	X59	Y59	Z59	X60	Y60	Z60	X61	Y61	Z61	X62	Y62	Z62	X63	Y63	Z63	X64	Y64	Z64	
1	0.0	266.80175	878.7945	280.80977000000007	340.92365	971.19177	399.2749400000001	317.54603	971.00623	150.37748000000005	297.78638	1033.71763	382.11280000000005	278.30502	1033.53209	175.14663000000004	219.67543	826.10208	337.49123000000003	209.93476	826.00931	233.96176000000006	204.73973	898.83246	286.5614100000001	236.55927	986.49854	283.7783600000001	245.74334	1100.69637	283.96389000000005	242.21814	1205.24629	285.9120300000001	392.13178	1427.05539	274.3159900000001	239.9917	1401.72964	290.0866000000001	236.4665	1309.70344	288.5095400000001	392.59562	1301.26152	271.5329300000001	244.07351	1458.50386	296.4876200000001	317.6388	1727.90313	280.7170000000001	354.37506	1618.34371	337.5839900000001	268.65712	1625.85795	219.21159000000011	265.03915	1624.00258	312.2582400000001	286.65417	1425.20003	486.6627200000001	228.58119	1432.99257	92.02619000000008	326.45179	1333.73044	715.1511400000002	380.99958	1323.61869	700.5865100000001	154.73759	1355.15993	-130.6178199999999	208.35769	1337.99779	-141.37894999999992	456.32747	1254.59905	912.6549400000001	443.89651	1299.22062	931.2086100000001	355.67382	1308.12638	693.5361200000001	200.84346	1284.65599	-367.73369999999994	181.36211	1329.4631	-377.93821999999994	189.43295	1325.9379	-124.40234999999991	497.14554	1238.55012	1091.14123	496.12509	1222.77951	1006.2582000000001	476.73651	1258.95916	946.5153900000001	188.87634	1295.50989	-552.1571699999998	210.49137	1266.93724	-473.6751499999999	209.37815	1293.28345	-406.1397999999999	270.97632	847.53157	429.88849000000005	254.37079	486.75549	407.90240000000006	258.82367	485.27119	337.58399000000003	296.11655	486.75549	372.83596000000006	250.84559	847.62433	131.91658000000007	228.02458	487.21933	154.36652000000004	236.4665	485.5495	224.31385000000003	271.71847	486.29165	186.83544000000003	307.52705	451.68905	374.32026	225.70537	85.25410999999997	407.34579	229.32334	83.95534999999998	347.78851	283.40728	452.4312	184.60900000000004	204.27589	85.16133999999998	155.2942	211.51182	83.67703999999999	214.48041	189.15465	-0.09277000000002288	373.39257	354.00399	2.1336699999999786	350.84987	346.58252	1.6698299999999737	428.96081	372.55766	2.040899999999976	390.92579	228.02458	3.061359999999977	377.19608	452.98781	2.6902799999999756	398.62556	169.58053	-0.3710700000000115	187.94866	333.78049	2.1336699999999866	215.12978	328.4927	1.6698299999999915	136.92607	353.44738	2.1336699999999893	175.61047	208.54323	2.8758199999999885	185.35115	433.9703	2.87581999999999	170.13714	
2	0.017	266.89452	878.88727	280.90254000000004	341.01642	971.19177	399.4604800000001	317.54603	971.19177	150.65579000000005	297.87914	1033.71763	382.39110000000005	278.39779	1033.62486	175.42493000000005	219.86097	826.10208	337.58399000000003	210.12029	826.00931	234.05453000000006	204.8325	898.83246	286.74694000000005	236.55927	986.59131	283.96389000000005	245.74334	1100.78914	284.2422000000001	242.21814	1205.24629	286.1903300000001	392.03901	1427.14816	274.6870600000001	239.89893	1401.72964	290.3649100000001	236.4665	1309.70344	288.78785000000005	392.50285	1301.35429	271.9040100000001	243.98074	1458.50386	296.7659200000001	317.6388	1727.99589	281.08807000000013	354.2823	1618.34371	337.9550700000001	268.56435	1626.04349	219.58266000000012	264.94638	1624.09535	312.5365400000001	286.65417	1425.20003	486.9410200000001	228.48842	1433.1781	92.30450000000009	326.26626	1333.91598	715.4294500000001	380.81404	1323.897	700.9575900000001	154.64482	1355.15993	-130.3395199999999	208.35769	1338.09055	-141.10064999999992	455.77086	1254.97012	913.2115500000001	443.3399	1299.59169	931.7652200000001	355.48828	1308.31192	693.9071900000001	200.65792	1284.47045	-367.36262999999997	181.17657	1329.27756	-377.65991999999994	189.43295	1325.9379	-124.12403999999991	496.40339	1238.82843	1091.69784	495.47571	1223.05781	1006.8148100000001	476.1799	1259.23746	946.9792300000001	188.59804	1295.04604	-551.8788599999999	210.30583	1266.56616	-473.30407999999994	209.28538	1293.09791	-405.86148999999995	271.16186	847.53157	429.9812600000001	254.37079	486.75549	407.90240000000006	258.7309	485.36396	337.58399000000003	296.11655	486.75549	372.74320000000006	250.93836	847.80987	132.10212000000007	228.11735	487.3121	154.55206000000004	236.65204	485.64227	224.40662000000003	271.81124	486.38441	187.02098000000004	307.52705	451.68905	374.22749	225.70537	85.25410999999997	407.34579	229.32334	83.95534999999998	347.78851	283.59282	452.52397	184.70177000000004	204.27589	85.25410999999998	155.2942	211.60459	83.76980999999999	214.48041	189.15465	-0.09277000000002288	373.48534	354.09676	2.1336699999999786	350.84987	346.58252	1.6698299999999737	428.96081	372.55766	2.133669999999976	391.01856	228.02458	3.1541199999999767	377.19608	452.98781	2.7830499999999754	398.62556	169.6733	-0.2783100000000115	187.94866	333.78049	2.226439999999987	215.12978	328.4927	1.7625999999999915	136.8333	353.44738	2.1336699999999893	175.5177	208.54323	2.9685899999999883	185.35115	433.9703	2.9685899999999896	170.13714	
3	0.033	266.98729	878.98003	281.0880700000001	341.10919	971.28453	399.64601000000005	317.6388	971.28453	150.84132000000005	297.87914	1033.71763	382.57664000000005	278.39779	1033.8104	175.61047000000005	219.95374	826.10208	337.76953000000003	210.21306	826.10208	234.24006000000006	204.92527	898.92523	286.93248000000006	236.65204	986.68408	284.14943000000005	245.74334	1100.88191	284.5205000000001	242.21814	1205.33906	286.46864000000005	391.94624	1427.3337	274.9653600000001	239.80616	1401.82241	290.7359800000001	236.37373	1309.79621	289.06615000000005	392.50285	1301.44706	272.18231000000003	243.88797	1458.59663	297.04423000000014	317.6388	1727.99589	281.5519200000001	354.2823	1618.34371	338.3261400000001	268.47158	1626.13625	219.95374000000012	264.85361	1624.18812	312.9076200000001	286.56141	1425.2928	487.2193300000001	228.48842	1433.27087	92.67557000000008	325.98795	1334.10152	715.8005200000001	380.53574	1324.1753	701.3286600000001	154.64482	1355.15993	-130.0612099999999	208.35769	1338.09055	-140.8223399999999	455.30702	1255.24843	913.7681600000001	442.78329	1299.87	932.2290600000001	355.20998	1308.59022	694.2782700000001	200.56515	1284.28492	-367.08432999999997	180.99103	1329.09203	-377.38160999999997	189.43295	1326.03067	-123.84573999999992	495.66125	1239.01397	1092.25445	494.82633	1223.33612	1007.3714200000001	475.62329	1259.51577	947.5358400000001	188.4125	1294.67497	-551.5077899999999	210.12029	1266.28786	-473.02576999999997	209.09984	1292.8196	-405.4904199999999	271.25463	847.53157	430.1668000000001	254.46356	486.75549	407.8096300000001	258.7309	485.36396	337.49123000000003	296.11655	486.84826	372.74320000000006	251.03113	847.90264	132.28765000000007	228.21012	487.40487	154.64482000000004	236.74481	485.73504	224.59215000000003	271.90401	486.47718	187.20651000000004	307.52705	451.78182	374.22749	225.70537	85.34686999999997	407.43856	229.32334	83.95534999999998	347.88128	283.68559	452.61674	184.88730000000004	204.36866	85.34686999999998	155.2942	211.60459	83.86257999999998	214.48041	189.24742	-0.09277000000002288	373.48534	354.09676	2.226439999999979	350.84987	346.67529	1.7625999999999737	428.96081	372.65043	2.133669999999976	391.01856	228.11735	3.1541199999999767	377.19608	452.98781	2.7830499999999754	398.62556	169.6733	-0.18554000000001153	187.94866	333.87326	2.3192099999999867	215.12978	328.58546	1.8553699999999915	136.8333	353.44738	2.2264399999999895	175.5177	208.636	3.0613599999999885	185.25838	434.06307	3.06135999999999	170.13714	
4	0.05	267.08005	878.98003	281.2736100000001	341.20196	971.28453	399.83155000000005	317.6388	971.3773	151.02686000000006	297.97191	1033.8104	382.85494000000006	278.39779	1033.90316	175.88878000000005	220.13927	826.10208	337.86230000000006	210.30583	826.10208	234.42560000000006	205.01803	898.92523	287.11802000000006	236.74481	986.68408	284.42773000000005	245.74334	1100.88191	284.70604000000003	242.12537	1205.33906	286.74694000000005	391.85347	1427.3337	275.2436700000001	239.71339	1401.82241	291.01429000000013	236.37373	1309.79621	289.3444600000001	392.41008	1301.53983	272.46062000000006	243.7952	1458.59663	297.3225300000001	317.6388	1728.08866	281.92299000000014	354.18953	1618.34371	338.6972100000001	268.37881	1626.22902	220.23204000000013	264.76085	1624.18812	313.2786900000001	286.46864	1425.2928	487.49763000000013	228.48842	1433.36364	92.95388000000008	325.61688	1334.37982	716.1715900000002	380.25743	1324.45361	701.6997300000002	154.64482	1355.15993	-129.7829099999999	208.35769	1338.27609	-140.5440399999999	454.75041	1255.71227	914.2320000000001	442.22668	1300.33384	932.7856700000001	354.93167	1308.86853	694.6493400000002	200.37962	1284.19215	-366.80601999999993	180.8055	1328.90649	-377.10330999999996	189.43295	1326.03067	-123.56742999999992	494.9191	1239.47781	1092.81106	494.17695	1223.79996	1007.9280300000001	474.97391	1259.97961	948.0924500000001	188.04143	1294.39667	-551.2294799999999	209.93476	1266.10232	-472.65469999999993	208.9143	1292.72684	-405.21210999999994	271.44017	847.53157	430.3523400000001	254.46356	486.75549	407.8096300000001	258.63814	485.45673	337.49123000000003	296.11655	486.84826	372.65043000000003	251.1239	847.90264	132.47319000000005	228.30289	487.49763	154.83036000000004	236.83758	485.73504	224.77769000000004	271.99678	486.56995	187.29928000000004	307.52705	451.78182	374.13472	225.70537	85.34686999999997	407.43856	229.32334	83.95534999999998	347.88128	283.77836	452.70951	184.98007000000004	204.36866	85.43963999999998	155.20143	211.69735	83.95534999999998	214.48041	189.24742	-0.09277000000002288	373.48534	354.09676	2.226439999999979	350.94264	346.67529	1.7625999999999737	428.96081	372.65043	2.226439999999976	391.01856	228.11735	3.1541199999999767	377.19608	452.98781	2.8758199999999756	398.71833	169.6733	-0.09277000000001151	187.94866	333.87326	2.3192099999999867	215.12978	328.58546	1.9481399999999915	136.8333	353.54015	2.3192099999999893	175.5177	208.636	3.1541199999999883	185.25838	434.06307	3.06135999999999	170.13714	
